<?xml version="1.0" encoding="UTF-8" standalone="no"?>
<!DOCTYPE svg PUBLIC "-//W3C//DTD SVG 1.1//EN" "http://www.w3.org/Graphics/SVG/1.1/DTD/svg11.dtd">
<svg xmlns="http://www.w3.org/2000/svg" version="1.1" viewBox="0.00 0.00 1208.00 420.00">
<path fill="#4e4e4e" d="
  M 1060.74 46.98
  A 0.95 0.94 27.0 0 0 1061.21 48.41
  C 1068.45 50.90 1073.70 56.27 1075.38 63.90
  C 1076.74 70.12 1076.62 79.31 1072.33 84.63
  Q 1062.65 96.63 1046.98 96.90
  Q 1027.76 97.23 1008.49 97.24
  C 997.54 97.25 996.82 90.79 996.78 81.93
  Q 996.61 47.09 996.76 12.25
  C 996.78 5.21 1002.47 0.49 1009.26 0.34
  Q 1035.02 -0.23 1043.01 0.41
  C 1050.52 1.02 1062.15 4.67 1067.56 10.38
  C 1078.02 21.43 1075.65 40.05 1061.33 46.44
  Q 1061.07 46.56 1060.90 46.76
  Q 1060.81 46.88 1060.74 46.98
  Z
  M 1020.37 21.77
  L 1020.53 37.81
  A 1.43 1.43 0.0 0 0 1021.98 39.22
  L 1039.18 39.04
  A 11.63 8.06 -0.6 0 0 1050.72 30.86
  L 1050.69 28.08
  A 11.63 8.06 -0.6 0 0 1038.98 20.14
  L 1021.78 20.32
  A 1.43 1.43 0.0 0 0 1020.37 21.77
  Z
  M 1020.48 59.11
  L 1020.42 76.99
  A 1.08 1.08 0.0 0 0 1021.50 78.08
  L 1043.73 78.15
  A 9.38 8.01 0.2 0 0 1053.14 70.18
  L 1053.16 66.16
  A 9.38 8.01 0.2 0 0 1043.80 58.11
  L 1021.57 58.04
  A 1.08 1.08 0.0 0 0 1020.48 59.11
  Z"
/>
<path fill="#dc7241" d="
  M 292.37 420.00
  L 289.53 420.00
  L 282.85 420.00
  L 277.02 420.00
  L 270.68 420.00
  Q 270.59 419.97 270.50 420.00
  L 211.69 420.00
  Q 211.61 419.98 211.52 420.00
  L 206.62 420.00
  L 65.25 420.00
  Q 62.10 419.79 58.91 419.73
  C 30.53 419.12 7.38 395.47 1.84 368.96
  Q 0.45 362.31 0.45 349.43
  Q 0.46 211.04 0.45 72.63
  Q 0.44 59.93 1.84 53.46
  C 8.65 22.04 35.22 2.70 66.83 0.72
  Q 66.88 0.71 76.67 0.72
  Q 193.55 0.76 310.43 0.74
  C 313.57 0.73 329.24 -0.62 332.07 2.42
  Q 332.38 2.75 332.42 3.21
  Q 332.66 6.34 331.36 7.36
  C 314.33 20.71 298.44 35.07 281.97 49.07
  C 251.55 74.93 222.35 101.84 199.07 131.56
  Q 196.41 134.97 188.22 146.60
  C 176.83 162.79 168.22 179.58 162.56 198.53
  C 155.53 222.04 155.15 250.79 162.91 274.05
  C 170.51 296.83 184.32 316.90 200.24 334.51
  C 220.17 356.54 243.90 377.19 266.56 393.65
  Q 281.28 404.35 296.23 414.73
  Q 297.90 415.89 298.67 417.10
  A 1.27 1.26 -21.4 0 1 297.82 419.03
  L 292.37 420.00
  Z"
/>
<rect fill="#4e4e4e" x="1081.61" y="0.85" width="24.66" height="96.40" rx="11.99"/>
<path fill="#4e4e4e" d="
  M 1204.31 75.35
  L 1204.57 74.92
  A 0.26 0.26 0.0 0 1 1204.98 74.88
  C 1208.25 78.29 1207.11 89.71 1206.62 94.18
  Q 1206.55 94.73 1206.01 94.81
  Q 1202.27 95.31 1198.82 96.36
  C 1186.83 100.00 1183.88 87.57 1181.05 79.23
  C 1180.53 77.70 1179.04 77.23 1177.43 77.22
  Q 1157.97 77.18 1139.01 77.17
  A 2.89 2.89 0.0 0 0 1136.36 78.90
  Q 1133.22 86.06 1129.94 93.16
  C 1127.70 98.02 1119.51 97.66 1115.57 95.69
  C 1104.96 90.36 1111.43 80.32 1115.02 72.82
  Q 1130.07 41.44 1145.10 10.05
  C 1147.79 4.43 1154.50 -0.81 1161.05 1.20
  C 1166.52 2.87 1169.25 5.77 1171.86 11.17
  Q 1185.67 39.77 1199.11 68.54
  Q 1200.80 72.16 1203.47 75.41
  A 0.52 0.52 0.0 0 0 1204.31 75.35
  Z
  M 1145.81 58.22
  A 0.41 0.41 0.0 0 0 1146.19 58.79
  L 1171.13 58.57
  A 0.41 0.41 0.0 0 0 1171.50 58.00
  L 1158.78 29.88
  A 0.41 0.41 0.0 0 0 1158.03 29.89
  L 1145.81 58.22
  Z"
/>
<path fill="#dc7241" d="
  M 407.86 420.00
  L 401.47 420.00
  Q 395.09 419.33 387.46 415.52
  Q 376.80 410.21 366.29 404.62
  Q 314.17 376.92 269.17 338.93
  C 255.99 327.81 243.68 315.49 232.46 302.79
  C 220.89 289.70 210.16 274.25 205.16 256.86
  C 199.57 237.42 202.43 217.18 210.78 198.90
  Q 222.00 174.33 240.23 153.22
  C 258.78 131.75 278.60 113.44 299.44 95.05
  Q 308.10 87.41 314.38 81.74
  Q 355.36 44.69 404.02 5.24
  C 407.09 2.76 411.18 -0.40 415.14 1.52
  C 418.29 3.05 419.15 5.70 419.15 9.26
  Q 419.15 19.06 419.08 28.85
  C 419.02 38.41 416.20 45.80 409.31 52.13
  Q 390.44 69.47 368.41 82.66
  Q 345.36 96.47 326.62 108.63
  Q 314.39 116.57 302.55 126.78
  Q 272.43 152.75 263.28 190.69
  C 256.84 217.40 260.67 245.82 270.59 271.18
  C 294.94 333.41 351.34 371.03 408.60 399.56
  C 413.68 402.09 420.82 406.95 418.89 413.56
  Q 416.89 420.41 407.86 420.00
  Z"
/>
<path fill="#4e4e4e" d="
  M 613.48 25.75
  Q 600.50 17.94 586.93 22.77
  C 576.84 26.36 574.67 35.26 573.98 45.29
  C 573.17 56.98 574.60 72.90 588.28 76.70
  C 600.23 80.02 608.61 74.78 617.91 71.15
  C 621.94 69.58 625.40 70.41 627.57 74.39
  Q 632.78 83.95 622.95 89.77
  C 607.43 98.97 586.62 100.12 570.83 91.24
  C 542.88 75.54 541.07 29.59 566.44 10.31
  C 574.08 4.50 588.33 0.06 597.72 1.12
  C 606.11 2.06 623.02 5.82 627.77 13.61
  Q 631.62 19.94 625.61 27.14
  C 622.98 30.29 616.30 27.44 613.48 25.75
  Z"
/>
<path fill="#4e4e4e" d="
  M 678.75 0.93
  C 702.44 3.45 719.91 16.54 722.10 41.54
  C 723.86 61.61 719.83 79.71 702.15 90.52
  C 692.09 96.67 679.21 98.29 667.53 96.64
  Q 648.89 94.00 638.68 80.01
  C 630.29 68.52 627.85 52.60 630.39 38.58
  Q 632.31 27.98 637.67 20.14
  Q 646.15 7.71 661.33 3.48
  C 667.17 1.85 673.16 0.33 678.75 0.93
  Z
  M 694.94 31.75
  C 689.88 20.23 675.33 17.39 665.07 23.34
  C 651.67 31.11 652.48 53.68 656.89 65.69
  C 661.42 78.00 675.32 81.12 686.44 76.13
  Q 690.95 74.11 692.52 71.49
  Q 703.99 52.34 694.94 31.75
  Z"
/>
<path fill="#4e4e4e" d="
  M 755.26 77.18
  Q 769.90 76.95 784.91 77.14
  Q 789.87 77.21 791.95 78.23
  C 798.71 81.56 798.31 93.63 791.58 96.21
  Q 789.04 97.19 780.81 97.20
  Q 760.91 97.25 741.00 96.95
  C 731.88 96.82 730.52 91.56 730.53 83.75
  Q 730.56 49.50 730.41 15.25
  C 730.40 11.59 731.18 6.32 734.38 4.03
  C 739.08 0.66 743.32 -0.27 748.76 2.99
  Q 754.19 6.25 754.26 12.00
  Q 754.63 43.76 754.54 76.47
  Q 754.53 77.20 755.26 77.18
  Z"
/>
<path fill="#4e4e4e" d="
  M 811.45 90.14
  C 793.54 78.80 788.53 56.17 792.75 36.24
  Q 796.21 19.97 808.63 10.51
  C 816.94 4.18 831.97 -0.26 842.61 1.21
  C 852.65 2.60 863.03 6.02 870.69 12.95
  C 878.27 19.80 882.94 30.52 884.09 40.64
  C 886.17 59.04 882.12 79.04 865.45 89.66
  C 849.94 99.54 827.24 100.13 811.45 90.14
  Z
  M 828.65 22.29
  C 820.82 25.44 816.66 34.94 815.95 42.91
  C 814.58 58.13 817.82 77.25 836.52 78.30
  C 861.10 79.69 864.43 50.23 857.68 33.60
  C 852.79 21.55 840.81 17.39 828.65 22.29
  Z"
/>
<path fill="#4e4e4e" d="
  M 963.06 50.71
  Q 958.02 60.42 952.18 71.93
  Q 950.00 76.22 946.08 80.46
  C 943.48 83.28 941.09 82.90 937.51 82.75
  Q 934.52 82.62 933.11 80.89
  C 931.01 78.34 929.03 75.99 927.48 72.95
  Q 924.46 67.04 921.07 61.33
  C 919.08 57.96 917.45 53.39 914.88 49.86
  A 0.69 0.68 -63.9 0 0 913.64 50.29
  Q 914.15 69.25 913.76 87.75
  C 913.59 96.16 902.76 99.95 896.69 95.37
  C 892.79 92.44 892.61 86.82 892.62 82.25
  Q 892.77 31.36 892.64 15.50
  C 892.60 10.35 893.66 5.83 898.30 3.01
  Q 904.79 -0.94 910.45 3.31
  Q 913.23 5.40 916.53 11.54
  Q 928.03 32.98 939.37 55.10
  A 0.51 0.50 -45.3 0 0 940.27 55.09
  Q 951.61 32.40 963.73 9.77
  C 965.63 6.22 970.72 0.26 975.51 1.16
  C 987.46 3.41 986.66 11.21 986.65 22.18
  Q 986.61 53.59 986.67 85.00
  C 986.67 89.67 985.01 94.83 980.19 96.50
  C 975.91 97.98 969.48 97.16 966.68 93.02
  Q 964.98 90.49 965.03 84.25
  Q 965.17 67.49 965.01 51.17
  Q 964.97 47.05 963.06 50.71
  Z"
/>
<path fill="#dc7241" d="
  M 306.17 221.75
  C 304.39 181.72 332.17 155.83 363.72 136.97
  Q 380.90 126.71 410.94 107.68
  C 414.71 105.29 418.86 106.12 418.94 111.51
  Q 419.14 125.46 419.04 130.76
  C 418.96 135.10 419.64 138.64 414.67 140.62
  Q 378.62 155.02 361.62 187.91
  Q 356.94 196.97 354.65 206.59
  Q 345.80 243.76 368.63 275.95
  Q 385.38 299.56 413.03 310.77
  Q 419.35 313.34 419.27 320.76
  Q 419.20 327.05 419.06 344.00
  C 419.01 349.61 413.86 352.23 409.14 349.58
  C 377.09 331.60 347.06 310.88 325.72 280.02
  Q 307.59 253.79 306.17 221.75
  Z"
/>
<path fill="#4e4e4e" d="
  M 907.39 182.89
  Q 904.56 188.28 901.78 195.26
  C 899.94 199.88 892.96 199.18 894.83 194.25
  C 897.41 187.50 901.26 180.16 903.46 175.09
  Q 913.03 153.01 919.93 138.71
  Q 920.68 137.17 922.64 136.13
  Q 923.07 135.90 923.54 136.05
  C 927.62 137.30 930.86 146.75 932.64 150.65
  Q 942.52 172.31 952.15 194.09
  C 953.86 197.94 948.94 199.12 946.94 197.56
  Q 946.01 196.84 945.13 194.62
  C 943.70 191.07 942.15 185.67 939.67 182.86
  Q 939.36 182.51 938.89 182.51
  L 908.10 182.46
  Q 907.62 182.46 907.39 182.89
  Z
  M 910.44 175.57
  A 0.75 0.75 0.0 0 0 911.13 176.62
  L 936.33 176.40
  A 0.75 0.75 0.0 0 0 937.00 175.34
  L 924.16 147.56
  A 0.75 0.75 0.0 0 0 922.79 147.57
  L 910.44 175.57
  Z"
/>
<path fill="#4e4e4e" d="
  M 768.53 152.04
  C 767.91 155.23 768.57 159.59 768.54 162.33
  Q 768.41 178.28 768.48 194.26
  Q 768.49 198.61 763.62 198.33
  Q 762.07 198.24 761.87 196.70
  Q 761.46 193.58 761.45 190.00
  Q 761.32 152.23 761.59 140.17
  Q 761.63 138.10 763.71 136.53
  Q 764.07 136.26 764.51 136.37
  Q 766.97 136.99 768.05 138.46
  Q 783.27 159.06 798.75 179.48
  Q 800.13 181.31 801.72 184.23
  A 0.85 0.84 -48.7 0 0 803.25 184.13
  Q 803.54 183.40 803.53 182.12
  Q 803.27 160.46 803.63 138.83
  Q 803.65 137.75 804.64 137.31
  C 807.83 135.89 810.22 136.50 810.23 140.50
  Q 810.29 167.19 810.28 193.89
  C 810.28 198.93 806.32 199.93 803.36 196.08
  Q 786.85 174.62 770.01 151.71
  Q 768.89 150.18 768.53 152.04
  Z"
/>
<path fill="#4e4e4e" d="
  M 1204.18 184.83
  L 1204.60 184.40
  Q 1205.04 183.95 1205.32 184.51
  C 1207.38 188.59 1207.07 191.74 1206.84 196.15
  C 1206.64 199.84 1201.70 198.98 1200.34 196.07
  Q 1197.78 190.59 1195.12 185.15
  C 1193.02 180.86 1192.60 182.59 1188.82 182.59
  Q 1175.87 182.56 1162.72 182.51
  A 1.56 1.56 0.0 0 0 1161.28 183.47
  C 1159.44 187.80 1157.20 194.16 1154.09 197.79
  Q 1153.76 198.18 1153.26 198.18
  L 1112.12 198.46
  A 1.08 1.07 -1.9 0 1 1111.03 197.45
  Q 1110.85 194.55 1110.83 191.50
  Q 1110.64 152.28 1110.76 139.75
  C 1110.80 135.80 1115.89 135.64 1117.30 138.35
  Q 1117.81 139.32 1117.82 141.71
  Q 1117.91 166.79 1117.85 191.30
  A 1.39 1.38 -0.0 0 0 1119.25 192.69
  L 1149.50 192.51
  A 1.07 1.07 0.0 0 0 1150.50 191.78
  Q 1152.68 185.27 1155.74 178.93
  C 1162.02 165.92 1167.89 152.73 1173.77 139.53
  Q 1174.96 136.85 1178.19 136.14
  A 1.00 0.99 -29.7 0 1 1179.05 136.37
  Q 1181.31 138.42 1182.71 141.51
  Q 1192.20 162.51 1202.36 184.51
  A 1.12 1.12 0.0 0 0 1204.18 184.83
  Z
  M 1164.93 175.48
  A 0.81 0.81 0.0 0 0 1165.68 176.61
  L 1190.33 176.48
  A 0.81 0.81 0.0 0 0 1191.07 175.34
  L 1178.59 147.37
  A 0.81 0.81 0.0 0 0 1177.11 147.38
  L 1164.93 175.48
  Z"
/>
<path fill="#4e4e4e" d="
  M 856.75 144.16
  C 849.30 141.71 837.43 142.79 832.90 150.42
  Q 824.74 164.14 830.24 179.53
  C 835.17 193.34 851.83 196.09 862.87 188.09
  Q 866.04 185.79 868.38 184.75
  A 0.68 0.68 0.0 0 1 869.25 185.05
  Q 871.88 189.85 867.26 192.85
  Q 856.84 199.60 845.28 198.28
  C 832.90 196.86 823.85 188.82 821.71 176.47
  C 818.68 158.97 823.91 141.14 843.22 137.13
  Q 856.71 134.33 867.88 143.19
  C 869.71 144.64 870.94 146.54 869.90 148.77
  A 1.36 1.36 0.0 0 1 868.22 149.48
  C 864.08 148.02 860.08 145.26 856.75 144.16
  Z"
/>
<path fill="#4e4e4e" d="
  M 557.64 173.56
  Q 557.34 183.78 557.46 194.00
  Q 557.52 198.85 552.49 198.18
  A 2.25 2.24 3.8 0 1 550.54 195.96
  L 550.45 139.26
  A 2.43 2.43 0.0 0 1 552.83 136.82
  Q 564.96 136.58 576.75 136.79
  C 600.50 137.20 600.97 170.96 578.46 172.78
  Q 573.40 173.19 558.27 172.96
  Q 557.66 172.96 557.64 173.56
  Z
  M 557.49 144.17
  L 557.61 165.71
  A 1.26 1.26 0.0 0 0 558.87 166.96
  L 575.79 166.87
  A 12.22 10.91 -0.3 0 0 587.96 155.90
  L 587.94 153.66
  A 12.22 10.91 -0.3 0 0 575.67 142.81
  L 558.75 142.90
  A 1.26 1.26 0.0 0 0 557.49 144.17
  Z"
/>
<path fill="#4e4e4e" d="
  M 615.45 195.33
  C 603.26 189.11 599.37 173.92 601.43 161.15
  Q 603.09 150.85 609.25 144.48
  C 619.88 133.48 640.15 134.06 650.26 146.01
  C 654.81 151.38 656.67 158.37 656.89 165.38
  C 657.17 174.54 655.65 182.77 649.68 189.71
  C 641.46 199.29 626.21 200.82 615.45 195.33
  Z
  M 609.12 161.21
  Q 607.77 169.01 609.52 177.05
  C 612.78 192.03 631.66 197.91 642.86 187.10
  Q 646.42 183.65 648.10 178.04
  C 651.74 165.88 649.48 147.30 634.80 143.72
  C 620.68 140.28 611.48 147.61 609.12 161.21
  Z"
/>
<path fill="#4e4e4e" d="
  M 677.61 143.33
  C 671.40 142.68 663.04 144.12 657.41 142.08
  A 2.08 2.08 0.0 0 1 656.13 139.47
  C 656.70 137.70 658.15 136.82 660.06 136.80
  Q 683.37 136.55 707.13 137.01
  A 0.63 0.63 0.0 0 1 707.74 137.75
  L 706.89 142.23
  Q 706.78 142.80 706.21 142.79
  Q 698.21 142.67 690.35 143.06
  Q 689.84 143.09 687.76 142.68
  Q 686.34 142.39 685.64 143.53
  Q 685.25 144.18 685.25 145.51
  Q 685.36 170.46 685.07 195.54
  A 2.50 2.47 -13.5 0 1 683.71 197.73
  Q 680.46 199.38 679.08 197.07
  Q 678.41 195.94 678.39 193.36
  Q 678.21 171.18 678.21 149.07
  C 678.20 147.87 678.64 145.69 678.34 144.00
  A 0.82 0.82 0.0 0 0 677.61 143.33
  Z"
/>
<path fill="#4e4e4e" d="
  M 721.37 164.23
  L 749.66 164.25
  A 1.52 1.51 2.6 0 1 751.17 165.90
  L 750.93 168.44
  A 1.71 1.70 -87.2 0 1 749.24 169.98
  L 721.77 170.08
  Q 720.37 170.09 720.36 171.49
  L 720.30 191.52
  A 1.21 1.20 -0.0 0 0 721.52 192.73
  L 751.29 192.53
  A 0.84 0.84 0.0 0 1 752.08 193.04
  C 752.56 194.11 752.33 196.57 752.07 197.49
  Q 751.76 198.58 750.45 198.45
  Q 749.11 198.33 749.05 198.33
  Q 732.26 198.43 714.81 198.19
  A 1.55 1.55 0.0 0 1 713.29 196.65
  Q 713.20 170.62 713.04 144.25
  Q 713.02 140.99 713.59 137.78
  A 0.78 0.76 -88.8 0 1 714.23 137.15
  Q 717.28 136.72 721.24 136.72
  Q 741.67 136.75 751.67 136.92
  Q 752.42 136.93 752.44 137.69
  L 752.53 141.72
  Q 752.55 142.49 751.78 142.50
  L 721.26 142.89
  A 0.85 0.85 0.0 0 0 720.42 143.74
  L 720.41 163.27
  A 0.96 0.96 0.0 0 0 721.37 164.23
  Z"
/>
<path fill="#4e4e4e" d="
  M 980.31 140.06
  A 3.24 3.24 0.0 0 1 983.53 136.81
  L 1003.45 136.70
  A 27.82 26.93 -0.3 0 1 1031.41 163.49
  L 1031.45 171.27
  A 27.82 26.93 -0.3 0 1 1003.77 198.34
  L 983.85 198.45
  A 3.24 3.24 0.0 0 1 980.59 195.22
  L 980.31 140.06
  Z
  M 987.17 144.70
  L 987.25 190.58
  A 1.91 1.91 0.0 0 0 989.16 192.49
  L 1002.01 192.47
  A 22.36 21.18 -0.1 0 0 1024.34 171.25
  L 1024.32 163.91
  A 22.36 21.18 -0.1 0 0 1001.93 142.77
  L 989.08 142.79
  A 1.91 1.91 0.0 0 0 987.17 144.70
  Z"
/>
<path fill="#4e4e4e" d="
  M 1049.58 192.50
  Q 1064.16 192.83 1078.77 192.86
  C 1081.00 192.86 1081.53 195.29 1080.86 197.00
  Q 1080.56 197.75 1079.24 197.83
  Q 1067.05 198.50 1045.75 198.24
  C 1041.36 198.19 1042.16 194.81 1042.12 191.75
  Q 1041.88 171.12 1041.82 150.50
  Q 1041.80 144.23 1042.40 138.71
  A 1.92 1.91 2.2 0 1 1044.26 136.99
  Q 1061.77 136.49 1079.21 138.09
  A 1.54 1.53 -71.0 0 1 1080.36 140.45
  C 1079.48 141.81 1078.06 141.46 1076.79 141.57
  Q 1063.59 142.68 1050.34 142.88
  A 1.13 1.12 -71.7 0 0 1049.47 143.32
  C 1048.47 144.64 1049.27 146.84 1049.27 147.96
  Q 1049.24 155.26 1049.21 163.24
  A 1.17 1.16 88.4 0 0 1050.44 164.41
  Q 1064.35 163.62 1078.12 165.60
  Q 1078.83 165.70 1078.93 166.42
  L 1079.17 168.28
  Q 1079.26 169.00 1078.54 169.07
  Q 1064.51 170.32 1050.41 170.04
  A 1.20 1.20 0.0 0 0 1049.19 171.24
  L 1049.16 192.06
  Q 1049.16 192.49 1049.58 192.50
  Z"
/>
<rect fill="#4e4e4e" x="-3.79" y="-30.58" transform="translate(882.92,167.63) rotate(-0.1)" width="7.58" height="61.16" rx="2.83"/>
<circle fill="#dc7241" cx="422.73" cy="222.59" r="31.83"/>
<path fill="#4e4e4e" d="
  M 641.89 420.00
  L 639.51 420.00
  Q 629.99 419.42 623.86 413.53
  Q 620.90 410.69 617.31 403.16
  Q 583.46 332.22 549.69 261.26
  C 539.56 239.98 572.01 223.17 587.72 237.03
  Q 590.72 239.68 593.68 245.69
  C 598.08 254.64 602.67 265.53 606.05 272.86
  Q 625.11 314.12 643.82 355.84
  A 0.38 0.37 60.0 0 0 644.37 355.99
  C 645.68 355.10 645.76 353.74 646.24 352.70
  Q 653.31 337.14 660.34 321.56
  Q 676.11 286.61 691.81 251.62
  Q 696.53 241.10 699.73 237.84
  Q 707.83 229.57 721.29 232.80
  Q 736.04 236.34 739.55 251.49
  C 740.54 255.74 736.36 263.09 734.47 267.07
  Q 701.60 336.47 668.54 405.78
  Q 663.29 416.79 652.33 419.30
  C 649.20 420.02 645.39 419.79 641.89 420.00
  Z"
/>
<path fill="#4e4e4e" d="
  M 783.64 420.00
  L 779.74 420.00
  C 772.15 419.29 765.33 420.37 760.33 412.99
  C 756.16 406.83 755.24 401.43 755.24 393.39
  Q 755.23 329.44 755.17 265.50
  C 755.16 259.45 755.01 252.11 756.67 246.83
  Q 760.48 234.67 774.02 232.31
  C 789.80 229.56 803.04 238.19 803.04 255.04
  Q 803.04 325.00 803.05 394.96
  Q 803.05 403.41 801.62 407.36
  Q 797.49 418.80 783.64 420.00
  Z"
/>
<path fill="#4e4e4e" d="
  M 913.89 420.00
  L 863.24 420.00
  L 857.88 420.00
  L 856.24 420.00
  Q 853.76 419.75 851.26 419.67
  C 839.57 419.31 834.96 407.99 834.93 398.06
  Q 834.71 327.14 834.99 256.22
  Q 835.02 248.86 836.39 244.97
  Q 840.97 231.96 856.23 231.98
  Q 882.52 232.01 908.75 231.92
  C 951.80 231.77 986.78 248.60 1001.71 289.45
  Q 1005.02 298.51 1006.36 308.85
  Q 1008.82 327.93 1005.92 346.96
  C 1002.92 366.67 993.59 386.66 978.00 399.55
  C 959.43 414.90 938.21 420.24 913.89 420.00
  Z
  M 959.12 315.37
  C 957.51 296.20 947.10 279.14 927.24 274.30
  C 912.96 270.82 899.30 271.99 884.99 271.28
  Q 883.24 271.20 883.24 272.95
  L 883.25 380.00
  A 0.99 0.99 0.0 0 0 884.20 380.99
  Q 898.49 381.49 912.49 380.76
  C 952.49 378.65 962.04 350.23 959.12 315.37
  Z"
/>
<path fill="#4e4e4e" d="
  M 1186.88 420.00
  L 1182.74 420.00
  C 1177.56 419.75 1171.05 418.46 1168.23 413.44
  Q 1161.64 401.67 1154.40 382.75
  C 1153.58 380.61 1151.48 381.49 1149.98 381.49
  Q 1110.14 381.39 1070.08 381.43
  A 1.47 1.47 0.0 0 0 1068.65 382.56
  C 1067.13 388.96 1063.81 394.85 1061.09 400.83
  C 1055.75 412.54 1053.70 419.86 1040.65 420.00
  L 1038.28 420.00
  Q 1024.56 420.53 1018.22 409.56
  C 1011.23 397.47 1020.05 386.13 1025.30 374.96
  Q 1041.61 340.26 1058.08 305.65
  Q 1080.14 259.32 1087.79 244.33
  C 1095.77 228.67 1121.71 228.25 1132.36 241.09
  Q 1134.51 243.69 1138.39 251.83
  Q 1181.35 341.99 1200.99 382.75
  Q 1201.77 384.38 1203.44 386.23
  A 0.50 0.46 63.3 0 0 1203.87 386.39
  Q 1204.46 386.30 1204.38 386.00
  Q 1203.81 383.87 1205.09 385.85
  Q 1206.84 388.56 1206.93 393.00
  Q 1207.11 401.39 1206.89 410.75
  A 2.11 2.10 7.2 0 1 1204.31 412.75
  Q 1203.27 412.52 1202.50 412.99
  Q 1201.84 413.39 1201.80 413.43
  Q 1195.79 419.78 1186.88 420.00
  Z
  M 1086.39 343.72
  A 0.90 0.90 0.0 0 0 1087.21 344.99
  L 1136.21 344.99
  A 0.90 0.90 0.0 0 0 1137.03 343.72
  L 1112.53 287.95
  A 0.90 0.90 0.0 0 0 1110.89 287.95
  L 1086.39 343.72
  Z"
/>
</svg>
